<svg width="468" height="97" viewBox="0 0 468 97" fill="none" xmlns="http://www.w3.org/2000/svg">
<g clip-path="url(#clip0_356_2767)">
<rect width="96.208" height="96.208" rx="20.7703" fill="#0B68F7"/>
<path d="M47.3379 21.9766V21.9775H47.3389L47.3398 21.9766L47.3408 21.9775C47.3428 21.9776 47.3447 21.9765 47.3467 21.9766L47.3457 21.9775C48.0662 21.9888 48.7637 22.2315 49.335 22.6709C49.9077 23.1115 50.3234 23.7251 50.5186 24.4209L60.4834 59.8545L65.3838 46.791C65.6231 46.1527 66.0511 45.6023 66.6113 45.2139C67.1715 44.8255 67.8369 44.6174 68.5186 44.6172H146.023C146.912 44.6172 147.764 44.9697 148.392 45.5977C149.02 46.2258 149.373 47.0785 149.373 47.9668C149.373 48.8549 149.02 49.7069 148.392 50.335C147.764 50.963 146.912 51.3154 146.023 51.3154H70.8398L63.1631 71.7812L63.1641 71.7822C62.9163 72.4433 62.4655 73.0095 61.877 73.3994C61.2885 73.7892 60.5919 73.9837 59.8867 73.9541C59.1814 73.9244 58.5029 73.6723 57.9492 73.2344C57.4647 72.8511 57.0973 72.3421 56.8848 71.7656L56.8027 71.5146L47.125 37.0957L43.4131 48.9648C43.2004 49.6459 42.7758 50.2412 42.2012 50.6641C41.6982 51.0342 41.1033 51.255 40.4844 51.3047L40.2178 51.3154H-31.7871C-32.6753 51.3154 -33.5272 50.9629 -34.1553 50.335C-34.7833 49.7069 -35.1366 48.8549 -35.1367 47.9668C-35.1367 47.0785 -34.7834 46.2258 -34.1553 45.5977C-33.5272 44.9697 -32.6753 44.6172 -31.7871 44.6172H37.7559L44.0947 24.3271C44.3102 23.6369 44.7432 23.0351 45.3291 22.6113C45.9114 22.1904 46.6138 21.9689 47.332 21.9775L47.333 21.9766H47.3379Z" fill="white" stroke="white" stroke-width="1.03851"/>
</g>
<path d="M146.88 75.8656C141.295 75.8656 136.497 74.7486 132.486 72.5146C128.526 70.2299 125.48 67.0313 123.347 62.9188C121.215 58.7555 120.149 53.856 120.149 48.2204C120.149 44.0063 120.758 40.2238 121.976 36.8729C123.195 33.4712 124.947 30.5772 127.231 28.1909C129.516 25.7539 132.308 23.9007 135.609 22.6314C138.96 21.3114 142.717 20.6513 146.88 20.6513C149.672 20.6513 152.414 21.0067 155.105 21.7175C157.796 22.4283 160.157 23.4438 162.188 24.7638C163.254 25.4239 163.965 26.2362 164.32 27.2009C164.675 28.1148 164.752 29.0287 164.549 29.9425C164.345 30.8057 163.914 31.5419 163.254 32.1511C162.645 32.7604 161.858 33.1158 160.893 33.2173C159.979 33.2681 158.964 32.9381 157.847 32.2273C156.273 31.2118 154.572 30.4756 152.744 30.0187C150.916 29.5618 149.063 29.3333 147.185 29.3333C143.58 29.3333 140.533 30.0695 138.046 31.5419C135.558 33.0142 133.679 35.1466 132.41 37.9391C131.141 40.7315 130.506 44.1586 130.506 48.2204C130.506 52.2313 131.141 55.6584 132.41 58.5016C133.679 61.3449 135.558 63.5027 138.046 64.975C140.533 66.4474 143.58 67.1836 147.185 67.1836C149.114 67.1836 151.018 66.9551 152.896 66.4982C154.775 65.9905 156.552 65.2289 158.227 64.2135C159.344 63.5534 160.334 63.2742 161.198 63.3757C162.111 63.4265 162.873 63.7311 163.482 64.2896C164.092 64.8481 164.498 65.5589 164.701 66.422C164.904 67.2344 164.853 68.0975 164.549 69.0114C164.244 69.8745 163.635 70.6361 162.721 71.2961C160.69 72.7685 158.253 73.9109 155.41 74.7232C152.617 75.4848 149.774 75.8656 146.88 75.8656ZM185.468 75.8656C181.254 75.8656 178.081 74.6724 175.948 72.2862C173.816 69.8491 172.75 66.2951 172.75 61.6241V25.6016C172.75 24.0276 173.156 22.8345 173.968 22.0222C174.781 21.2098 175.948 20.8036 177.472 20.8036C178.995 20.8036 180.162 21.2098 180.975 22.0222C181.838 22.8345 182.269 24.0276 182.269 25.6016V61.1672C182.269 63.5027 182.752 65.2289 183.716 66.3459C184.732 67.4629 186.153 68.0213 187.981 68.0213C188.387 68.0213 188.768 68.0213 189.124 68.0213C189.479 67.9706 189.834 67.9198 190.19 67.869C190.901 67.7675 191.383 67.9706 191.637 68.4783C191.891 68.9352 192.018 69.8999 192.018 71.3723C192.018 72.6416 191.764 73.6316 191.256 74.3424C190.748 75.0532 189.911 75.4848 188.743 75.6371C188.235 75.6879 187.702 75.7387 187.144 75.7894C186.585 75.8402 186.027 75.8656 185.468 75.8656ZM201.791 75.6371C200.268 75.6371 199.1 75.1802 198.288 74.2663C197.476 73.3524 197.07 72.0831 197.07 70.4584V42.5085C197.07 40.8331 197.476 39.5638 198.288 38.7007C199.1 37.7868 200.268 37.3298 201.791 37.3298C203.315 37.3298 204.482 37.7868 205.295 38.7007C206.158 39.5638 206.589 40.8331 206.589 42.5085V70.4584C206.589 72.0831 206.183 73.3524 205.371 74.2663C204.558 75.1802 203.365 75.6371 201.791 75.6371ZM205.371 32.4557C204.863 33.1666 204.254 33.5727 203.543 33.6743C202.832 33.7758 202.147 33.6489 201.487 33.2935C200.827 32.9381 200.344 32.4304 200.04 31.7703C199.786 31.1103 199.862 30.3741 200.268 29.5618L206.056 18.2143C206.513 17.2496 207.122 16.6404 207.884 16.3865C208.646 16.0819 209.433 16.0311 210.245 16.2342C211.057 16.4373 211.743 16.8181 212.301 17.3765C212.91 17.935 213.266 18.6204 213.367 19.4328C213.52 20.1944 213.317 20.9813 212.758 21.7937L205.371 32.4557ZM221.203 75.7133C219.679 75.7133 218.512 75.3071 217.699 74.4947C216.887 73.6316 216.481 72.4131 216.481 70.8392V42.0516C216.481 40.4777 216.887 39.2845 217.699 38.4722C218.512 37.6598 219.654 37.2537 221.126 37.2537C222.599 37.2537 223.741 37.6598 224.554 38.4722C225.366 39.2845 225.772 40.4777 225.772 42.0516V47.2303L224.934 45.3264C226.051 42.6355 227.778 40.6046 230.113 39.2338C232.499 37.8122 235.19 37.1014 238.186 37.1014C241.181 37.1014 243.644 37.6598 245.573 38.7768C247.502 39.8938 248.949 41.5947 249.914 43.8794C250.879 46.1133 251.361 48.9566 251.361 52.409V70.8392C251.361 72.4131 250.955 73.6316 250.143 74.4947C249.33 75.3071 248.162 75.7133 246.639 75.7133C245.116 75.7133 243.923 75.3071 243.06 74.4947C242.248 73.6316 241.841 72.4131 241.841 70.8392V52.866C241.841 49.972 241.283 47.865 240.166 46.5449C239.1 45.2248 237.424 44.5648 235.139 44.5648C232.347 44.5648 230.113 45.4533 228.438 47.2303C226.813 48.9566 226.001 51.2667 226.001 54.1607V70.8392C226.001 74.0886 224.401 75.7133 221.203 75.7133ZM265.752 75.6371C264.229 75.6371 263.061 75.1802 262.249 74.2663C261.436 73.3524 261.03 72.0831 261.03 70.4584V42.5085C261.03 40.8331 261.436 39.5638 262.249 38.7007C263.061 37.7868 264.229 37.3298 265.752 37.3298C267.275 37.3298 268.443 37.7868 269.255 38.7007C270.118 39.5638 270.55 40.8331 270.55 42.5085V70.4584C270.55 72.0831 270.144 73.3524 269.331 74.2663C268.519 75.1802 267.326 75.6371 265.752 75.6371ZM265.752 30.2472C263.975 30.2472 262.579 29.8156 261.563 28.9525C260.599 28.0386 260.116 26.7947 260.116 25.2208C260.116 23.5961 260.599 22.3522 261.563 21.489C262.579 20.6259 263.975 20.1944 265.752 20.1944C267.58 20.1944 268.976 20.6259 269.941 21.489C270.905 22.3522 271.388 23.5961 271.388 25.2208C271.388 26.7947 270.905 28.0386 269.941 28.9525C268.976 29.8156 267.58 30.2472 265.752 30.2472ZM297.653 75.8656C293.744 75.8656 290.342 75.0786 287.448 73.5047C284.554 71.88 282.32 69.5953 280.746 66.6505C279.172 63.7057 278.385 60.2533 278.385 56.2931C278.385 53.2975 278.817 50.632 279.68 48.2965C280.594 45.9103 281.888 43.9048 283.564 42.2801C285.239 40.6046 287.27 39.3353 289.656 38.4722C292.043 37.5583 294.708 37.1014 297.653 37.1014C299.328 37.1014 301.131 37.3298 303.06 37.7868C305.04 38.2437 306.893 39.0053 308.62 40.0715C309.432 40.5792 309.965 41.1885 310.219 41.8993C310.473 42.6101 310.524 43.3463 310.371 44.1079C310.219 44.8187 309.889 45.4533 309.381 46.0118C308.924 46.5195 308.34 46.8495 307.63 47.0018C306.919 47.1034 306.132 46.9257 305.269 46.4687C304.152 45.8087 303.009 45.3264 301.842 45.0218C300.674 44.6663 299.557 44.4886 298.491 44.4886C296.815 44.4886 295.343 44.7679 294.074 45.3264C292.804 45.8341 291.713 46.5957 290.799 47.6111C289.936 48.5758 289.276 49.7943 288.819 51.2667C288.362 52.7391 288.133 54.4399 288.133 56.3692C288.133 60.1263 289.022 63.0965 290.799 65.2797C292.627 67.4121 295.191 68.4783 298.491 68.4783C299.557 68.4783 300.648 68.326 301.765 68.0213C302.933 67.7167 304.101 67.2344 305.269 66.5744C306.132 66.1174 306.893 65.9651 307.553 66.1174C308.264 66.2697 308.848 66.6251 309.305 67.1836C309.762 67.6913 310.041 68.326 310.143 69.0876C310.244 69.7984 310.143 70.5092 309.838 71.22C309.584 71.9308 309.077 72.5146 308.315 72.9716C306.64 73.987 304.863 74.7232 302.984 75.1802C301.105 75.6371 299.328 75.8656 297.653 75.8656ZM322.151 75.7133C320.577 75.7133 319.359 75.2817 318.496 74.4186C317.683 73.5047 317.277 72.2608 317.277 70.6869V26.3631C317.277 24.7384 317.709 23.5199 318.572 22.7076C319.435 21.8445 320.654 21.4129 322.227 21.4129H340.581C346.471 21.4129 351.015 22.8853 354.214 25.83C357.412 28.7748 359.012 32.8873 359.012 38.1676C359.012 43.4478 357.412 47.5857 354.214 50.5813C351.015 53.526 346.471 54.9984 340.581 54.9984H327.025V70.6869C327.025 72.2608 326.619 73.5047 325.807 74.4186C324.995 75.2817 323.776 75.7133 322.151 75.7133ZM327.025 47.3065H339.058C342.511 47.3065 345.126 46.5449 346.903 45.0218C348.68 43.4478 349.568 41.1631 349.568 38.1676C349.568 35.172 348.68 32.9127 346.903 31.3895C345.126 29.8664 342.511 29.1048 339.058 29.1048H327.025V47.3065ZM378.763 75.8656C374.549 75.8656 371.375 74.6724 369.243 72.2862C367.11 69.8491 366.044 66.2951 366.044 61.6241V25.6016C366.044 24.0276 366.45 22.8345 367.263 22.0222C368.075 21.2098 369.243 20.8036 370.766 20.8036C372.289 20.8036 373.457 21.2098 374.269 22.0222C375.132 22.8345 375.564 24.0276 375.564 25.6016V61.1672C375.564 63.5027 376.046 65.2289 377.011 66.3459C378.026 67.4629 379.448 68.0213 381.276 68.0213C381.682 68.0213 382.063 68.0213 382.418 68.0213C382.774 67.9706 383.129 67.9198 383.484 67.869C384.195 67.7675 384.678 67.9706 384.931 68.4783C385.185 68.9352 385.312 69.8999 385.312 71.3723C385.312 72.6416 385.058 73.6316 384.551 74.3424C384.043 75.0532 383.205 75.4848 382.037 75.6371C381.53 75.6879 380.997 75.7387 380.438 75.7894C379.88 75.8402 379.321 75.8656 378.763 75.8656ZM403.844 75.8656C400.747 75.8656 398.183 75.3071 396.152 74.1901C394.121 73.0224 392.598 71.2961 391.583 69.0114C390.618 66.7267 390.136 63.8835 390.136 60.4817V42.0516C390.136 40.4269 390.542 39.2338 391.354 38.4722C392.167 37.6598 393.334 37.2537 394.857 37.2537C396.381 37.2537 397.548 37.6598 398.361 38.4722C399.224 39.2338 399.655 40.4269 399.655 42.0516V60.6341C399.655 63.2742 400.188 65.2289 401.255 66.4982C402.321 67.7675 404.022 68.4021 406.357 68.4021C408.896 68.4021 410.977 67.539 412.602 65.8128C414.227 64.0358 415.039 61.7003 415.039 58.8063V42.0516C415.039 40.4269 415.445 39.2338 416.258 38.4722C417.07 37.6598 418.238 37.2537 419.761 37.2537C421.284 37.2537 422.452 37.6598 423.264 38.4722C424.127 39.2338 424.559 40.4269 424.559 42.0516V70.8392C424.559 74.0886 423.01 75.7133 419.913 75.7133C418.441 75.7133 417.299 75.3071 416.486 74.4947C415.674 73.6316 415.268 72.4131 415.268 70.8392V65.0512L416.334 67.3359C415.268 70.0776 413.643 72.1846 411.46 73.657C409.327 75.1294 406.789 75.8656 403.844 75.8656ZM448.099 75.8656C445.916 75.8656 443.606 75.6371 441.169 75.1802C438.732 74.7232 436.549 73.9363 434.619 72.8193C433.807 72.3116 433.223 71.7277 432.868 71.0677C432.563 70.3568 432.436 69.6714 432.487 69.0114C432.589 68.3006 432.842 67.6913 433.249 67.1836C433.706 66.6759 434.264 66.3459 434.924 66.1936C435.635 66.0412 436.396 66.1682 437.209 66.5744C439.24 67.539 441.144 68.2244 442.921 68.6306C444.698 68.986 446.449 69.1637 448.175 69.1637C450.613 69.1637 452.415 68.7575 453.583 67.9452C454.801 67.0821 455.41 65.9651 455.41 64.5943C455.41 63.4265 455.004 62.538 454.192 61.9287C453.43 61.2687 452.263 60.7864 450.689 60.4817L443.073 59.0347C439.925 58.4255 437.513 57.2831 435.838 55.6077C434.213 53.8814 433.401 51.6728 433.401 48.9819C433.401 46.5449 434.061 44.4379 435.381 42.6609C436.752 40.8839 438.63 39.513 441.017 38.5484C443.403 37.5837 446.145 37.1014 449.242 37.1014C451.476 37.1014 453.557 37.3552 455.487 37.8629C457.467 38.3199 459.371 39.0561 461.198 40.0715C461.96 40.4777 462.468 41.0108 462.722 41.6708C463.026 42.3308 463.102 43.0163 462.95 43.7271C462.798 44.3871 462.493 44.9964 462.036 45.5549C461.579 46.0626 460.995 46.3926 460.285 46.5449C459.625 46.6464 458.863 46.4941 458 46.088C456.426 45.2756 454.903 44.6917 453.43 44.3363C452.009 43.9809 450.638 43.8032 449.318 43.8032C446.83 43.8032 444.977 44.2348 443.758 45.0979C442.591 45.961 442.007 47.1034 442.007 48.525C442.007 49.5912 442.362 50.4797 443.073 51.1905C443.784 51.9013 444.875 52.3837 446.348 52.6375L453.963 54.0845C457.264 54.6938 459.751 55.8107 461.427 57.4354C463.153 59.0601 464.016 61.2433 464.016 63.985C464.016 67.6913 462.569 70.6107 459.675 72.7431C456.781 74.8248 452.923 75.8656 448.099 75.8656Z" fill="white"/>
<defs>
<clipPath id="clip0_356_2767">
<rect width="96.208" height="96.208" rx="20.7703" fill="white"/>
</clipPath>
</defs>
</svg>
