<svg width="136" height="28" viewBox="0 0 136 28" fill="none" xmlns="http://www.w3.org/2000/svg">
<g clip-path="url(#clip0_5001_120)">
<rect width="27.792" height="27.792" rx="6" fill="#0B68F7"/>
<path d="M13.6748 6.34888L13.6758 6.34985L13.6777 6.34888L13.6768 6.34985C13.885 6.35307 14.0869 6.42208 14.252 6.54907L14.3672 6.65356C14.4733 6.76656 14.5515 6.90421 14.5938 7.05493L17.4717 17.2903L18.8877 13.5168L18.9492 13.3831C19.0208 13.2554 19.1209 13.1449 19.2422 13.0608L19.3691 12.9866C19.5005 12.9224 19.6455 12.889 19.793 12.8889H42.1826C42.4391 12.889 42.6848 12.9908 42.8662 13.1721L42.9307 13.2434C43.0717 13.4156 43.1504 13.6322 43.1504 13.8567C43.1503 14.081 43.0716 14.297 42.9307 14.469L42.8662 14.5403C42.6848 14.7216 42.4391 14.8234 42.1826 14.8235H20.4639L18.2461 20.7366C18.1924 20.8797 18.1058 21.0072 17.9941 21.1096L17.875 21.2034C17.7474 21.2879 17.6018 21.3403 17.4512 21.3577L17.2998 21.3635C17.147 21.3571 16.9983 21.3147 16.8662 21.2405L16.7402 21.1555C16.6202 21.0606 16.5253 20.9388 16.4619 20.801L16.4092 20.6584L13.6123 10.7151L12.541 14.1448C12.4949 14.2925 12.4142 14.4262 12.3066 14.5354L12.1904 14.636C12.0661 14.7274 11.9224 14.7874 11.7715 14.8118L11.6182 14.8235H-9.18262C-9.40715 14.8234 -9.62375 14.7458 -9.7959 14.6047L-9.86621 14.5403C-10.0476 14.3589 -10.1503 14.1132 -10.1504 13.8567C-10.1504 13.6001 -10.0477 13.3536 -9.86621 13.1721L-9.7959 13.1077C-9.62376 12.9666 -9.40712 12.889 -9.18262 12.8889H10.9072L12.7383 7.02759L12.7959 6.88306C12.8653 6.74426 12.9677 6.6233 13.0947 6.53149L13.2275 6.45142C13.3648 6.38254 13.5169 6.34818 13.6719 6.34985L13.6729 6.34888H13.6748Z" fill="white" stroke="white" stroke-width="0.3"/>
</g>
<path d="M42.4299 22.116C40.8166 22.116 39.4306 21.7933 38.2719 21.148C37.1279 20.488 36.2479 19.564 35.6319 18.376C35.0159 17.1733 34.7079 15.758 34.7079 14.13C34.7079 12.9127 34.8839 11.82 35.2359 10.852C35.5879 9.86933 36.0939 9.03333 36.7539 8.34399C37.4139 7.64 38.2206 7.10466 39.1739 6.738C40.1419 6.35666 41.2272 6.166 42.4299 6.166C43.2366 6.166 44.0286 6.26866 44.8059 6.474C45.5832 6.67933 46.2652 6.97266 46.8519 7.354C47.1599 7.54466 47.3652 7.77933 47.4679 8.058C47.5706 8.322 47.5926 8.586 47.5339 8.84999C47.4752 9.09933 47.3506 9.312 47.1599 9.488C46.9839 9.664 46.7566 9.76666 46.4779 9.796C46.2139 9.81066 45.9206 9.71533 45.5979 9.51C45.1432 9.21666 44.6519 9.004 44.1239 8.872C43.5959 8.74 43.0606 8.674 42.5179 8.674C41.4766 8.674 40.5966 8.88666 39.8779 9.312C39.1592 9.73733 38.6166 10.3533 38.2499 11.16C37.8832 11.9667 37.6999 12.9567 37.6999 14.13C37.6999 15.2887 37.8832 16.2787 38.2499 17.1C38.6166 17.9213 39.1592 18.5447 39.8779 18.97C40.5966 19.3953 41.4766 19.608 42.5179 19.608C43.0752 19.608 43.6252 19.542 44.1679 19.41C44.7106 19.2633 45.2239 19.0433 45.7079 18.75C46.0306 18.5593 46.3166 18.4787 46.5659 18.508C46.8299 18.5227 47.0499 18.6107 47.2259 18.772C47.4019 18.9333 47.5192 19.1387 47.5779 19.388C47.6366 19.6227 47.6219 19.872 47.5339 20.136C47.4459 20.3853 47.2699 20.6053 47.0059 20.796C46.4192 21.2213 45.7152 21.5513 44.8939 21.786C44.0872 22.006 43.2659 22.116 42.4299 22.116ZM53.577 22.116C52.3597 22.116 51.443 21.7713 50.827 21.082C50.211 20.378 49.903 19.3513 49.903 18.002V7.596C49.903 7.14133 50.0204 6.79666 50.255 6.562C50.4897 6.32733 50.827 6.20999 51.267 6.20999C51.707 6.20999 52.0444 6.32733 52.279 6.562C52.5284 6.79666 52.653 7.14133 52.653 7.596V17.87C52.653 18.5447 52.7924 19.0433 53.071 19.366C53.3644 19.6887 53.775 19.85 54.303 19.85C54.4204 19.85 54.5304 19.85 54.633 19.85C54.7357 19.8353 54.8384 19.8207 54.941 19.806C55.1464 19.7767 55.2857 19.8353 55.359 19.982C55.4324 20.114 55.469 20.3927 55.469 20.818C55.469 21.1847 55.3957 21.4707 55.249 21.676C55.1024 21.8813 54.8604 22.006 54.523 22.05C54.3764 22.0647 54.2224 22.0793 54.061 22.094C53.8997 22.1087 53.7384 22.116 53.577 22.116ZM58.2924 22.05C57.8524 22.05 57.5151 21.918 57.2804 21.654C57.0457 21.39 56.9284 21.0233 56.9284 20.554V12.48C56.9284 11.996 57.0457 11.6293 57.2804 11.38C57.5151 11.116 57.8524 10.984 58.2924 10.984C58.7324 10.984 59.0697 11.116 59.3044 11.38C59.5537 11.6293 59.6784 11.996 59.6784 12.48V20.554C59.6784 21.0233 59.5611 21.39 59.3264 21.654C59.0917 21.918 58.7471 22.05 58.2924 22.05ZM59.3264 9.576C59.1797 9.78133 59.0037 9.89866 58.7984 9.928C58.5931 9.95733 58.3951 9.92066 58.2044 9.818C58.0137 9.71533 57.8744 9.56866 57.7864 9.378C57.7131 9.18733 57.7351 8.97466 57.8524 8.74L59.5244 5.462C59.6564 5.18333 59.8324 5.00733 60.0524 4.934C60.2724 4.846 60.4997 4.83133 60.7344 4.88999C60.9691 4.94866 61.1671 5.05866 61.3284 5.22C61.5044 5.38133 61.6071 5.57933 61.6364 5.814C61.6804 6.034 61.6217 6.26133 61.4604 6.496L59.3264 9.576ZM63.8998 22.072C63.4598 22.072 63.1225 21.9547 62.8878 21.72C62.6532 21.4707 62.5358 21.1187 62.5358 20.664V12.348C62.5358 11.8933 62.6532 11.5487 62.8878 11.314C63.1225 11.0793 63.4525 10.962 63.8778 10.962C64.3032 10.962 64.6332 11.0793 64.8678 11.314C65.1025 11.5487 65.2198 11.8933 65.2198 12.348V13.844L64.9778 13.294C65.3005 12.5167 65.7992 11.93 66.4738 11.534C67.1632 11.1233 67.9405 10.918 68.8058 10.918C69.6712 10.918 70.3825 11.0793 70.9398 11.402C71.4972 11.7247 71.9152 12.216 72.1938 12.876C72.4725 13.5213 72.6118 14.3427 72.6118 15.34V20.664C72.6118 21.1187 72.4945 21.4707 72.2598 21.72C72.0252 21.9547 71.6878 22.072 71.2478 22.072C70.8078 22.072 70.4632 21.9547 70.2138 21.72C69.9792 21.4707 69.8618 21.1187 69.8618 20.664V15.472C69.8618 14.636 69.7005 14.0273 69.3778 13.646C69.0698 13.2647 68.5858 13.074 67.9258 13.074C67.1192 13.074 66.4738 13.3307 65.9898 13.844C65.5205 14.3427 65.2858 15.01 65.2858 15.846V20.664C65.2858 21.6027 64.8238 22.072 63.8998 22.072ZM76.769 22.05C76.329 22.05 75.9916 21.918 75.757 21.654C75.5223 21.39 75.405 21.0233 75.405 20.554V12.48C75.405 11.996 75.5223 11.6293 75.757 11.38C75.9916 11.116 76.329 10.984 76.769 10.984C77.209 10.984 77.5463 11.116 77.781 11.38C78.0303 11.6293 78.155 11.996 78.155 12.48V20.554C78.155 21.0233 78.0376 21.39 77.803 21.654C77.5683 21.918 77.2236 22.05 76.769 22.05ZM76.769 8.938C76.2556 8.938 75.8523 8.81333 75.559 8.564C75.2803 8.3 75.141 7.94066 75.141 7.486C75.141 7.01666 75.2803 6.65733 75.559 6.40799C75.8523 6.15866 76.2556 6.034 76.769 6.034C77.297 6.034 77.7003 6.15866 77.979 6.40799C78.2576 6.65733 78.397 7.01666 78.397 7.486C78.397 7.94066 78.2576 8.3 77.979 8.564C77.7003 8.81333 77.297 8.938 76.769 8.938ZM85.9844 22.116C84.8551 22.116 83.8724 21.8887 83.0364 21.434C82.2004 20.9647 81.5551 20.3047 81.1004 19.454C80.6457 18.6033 80.4184 17.606 80.4184 16.462C80.4184 15.5967 80.5431 14.8267 80.7924 14.152C81.0564 13.4627 81.4304 12.8833 81.9144 12.414C82.3984 11.93 82.9851 11.5633 83.6744 11.314C84.3637 11.05 85.1337 10.918 85.9844 10.918C86.4684 10.918 86.9891 10.984 87.5464 11.116C88.1184 11.248 88.6537 11.468 89.1524 11.776C89.3871 11.9227 89.5411 12.0987 89.6144 12.304C89.6877 12.5093 89.7024 12.722 89.6584 12.942C89.6144 13.1473 89.5191 13.3307 89.3724 13.492C89.2404 13.6387 89.0717 13.734 88.8664 13.778C88.6611 13.8073 88.4337 13.756 88.1844 13.624C87.8617 13.4333 87.5317 13.294 87.1944 13.206C86.8571 13.1033 86.5344 13.052 86.2264 13.052C85.7424 13.052 85.3171 13.1327 84.9504 13.294C84.5837 13.4407 84.2684 13.6607 84.0044 13.954C83.7551 14.2327 83.5644 14.5847 83.4324 15.01C83.3004 15.4353 83.2344 15.9267 83.2344 16.484C83.2344 17.5693 83.4911 18.4273 84.0044 19.058C84.5324 19.674 85.2731 19.982 86.2264 19.982C86.5344 19.982 86.8497 19.938 87.1724 19.85C87.5097 19.762 87.8471 19.6227 88.1844 19.432C88.4337 19.3 88.6537 19.256 88.8444 19.3C89.0497 19.344 89.2184 19.4467 89.3504 19.608C89.4824 19.7547 89.5631 19.938 89.5924 20.158C89.6217 20.3633 89.5924 20.5687 89.5044 20.774C89.4311 20.9793 89.2844 21.148 89.0644 21.28C88.5804 21.5733 88.0671 21.786 87.5244 21.918C86.9817 22.05 86.4684 22.116 85.9844 22.116ZM93.0614 22.072C92.6067 22.072 92.2547 21.9473 92.0054 21.698C91.7707 21.434 91.6534 21.0747 91.6534 20.62V7.816C91.6534 7.34666 91.778 6.99466 92.0274 6.76C92.2767 6.51066 92.6287 6.386 93.0834 6.386H98.3854C100.087 6.386 101.399 6.81133 102.323 7.662C103.247 8.51266 103.709 9.70066 103.709 11.226C103.709 12.7513 103.247 13.9467 102.323 14.812C101.399 15.6627 100.087 16.088 98.3854 16.088H94.4694V20.62C94.4694 21.0747 94.352 21.434 94.1174 21.698C93.8827 21.9473 93.5307 22.072 93.0614 22.072ZM94.4694 13.866H97.9454C98.9427 13.866 99.698 13.646 100.211 13.206C100.725 12.7513 100.981 12.0913 100.981 11.226C100.981 10.3607 100.725 9.708 100.211 9.268C99.698 8.828 98.9427 8.608 97.9454 8.608H94.4694V13.866ZM109.415 22.116C108.198 22.116 107.281 21.7713 106.665 21.082C106.049 20.378 105.741 19.3513 105.741 18.002V7.596C105.741 7.14133 105.858 6.79666 106.093 6.562C106.328 6.32733 106.665 6.20999 107.105 6.20999C107.545 6.20999 107.882 6.32733 108.117 6.562C108.366 6.79666 108.491 7.14133 108.491 7.596V17.87C108.491 18.5447 108.63 19.0433 108.909 19.366C109.202 19.6887 109.613 19.85 110.141 19.85C110.258 19.85 110.368 19.85 110.471 19.85C110.574 19.8353 110.676 19.8207 110.779 19.806C110.984 19.7767 111.124 19.8353 111.197 19.982C111.27 20.114 111.307 20.3927 111.307 20.818C111.307 21.1847 111.234 21.4707 111.087 21.676C110.94 21.8813 110.698 22.006 110.361 22.05C110.214 22.0647 110.06 22.0793 109.899 22.094C109.738 22.1087 109.576 22.116 109.415 22.116ZM116.66 22.116C115.766 22.116 115.025 21.9547 114.438 21.632C113.852 21.2947 113.412 20.796 113.118 20.136C112.84 19.476 112.7 18.6547 112.7 17.672V12.348C112.7 11.8787 112.818 11.534 113.052 11.314C113.287 11.0793 113.624 10.962 114.064 10.962C114.504 10.962 114.842 11.0793 115.076 11.314C115.326 11.534 115.45 11.8787 115.45 12.348V17.716C115.45 18.4787 115.604 19.0433 115.912 19.41C116.22 19.7767 116.712 19.96 117.386 19.96C118.12 19.96 118.721 19.7107 119.19 19.212C119.66 18.6987 119.894 18.024 119.894 17.188V12.348C119.894 11.8787 120.012 11.534 120.246 11.314C120.481 11.0793 120.818 10.962 121.258 10.962C121.698 10.962 122.036 11.0793 122.27 11.314C122.52 11.534 122.644 11.8787 122.644 12.348V20.664C122.644 21.6027 122.197 22.072 121.302 22.072C120.877 22.072 120.547 21.9547 120.312 21.72C120.078 21.4707 119.96 21.1187 119.96 20.664V18.992L120.268 19.652C119.96 20.444 119.491 21.0527 118.86 21.478C118.244 21.9033 117.511 22.116 116.66 22.116ZM129.445 22.116C128.814 22.116 128.147 22.05 127.443 21.918C126.739 21.786 126.108 21.5587 125.551 21.236C125.316 21.0893 125.147 20.9207 125.045 20.73C124.957 20.5247 124.92 20.3267 124.935 20.136C124.964 19.9307 125.037 19.7547 125.155 19.608C125.287 19.4613 125.448 19.366 125.639 19.322C125.844 19.278 126.064 19.3147 126.299 19.432C126.885 19.7107 127.435 19.9087 127.949 20.026C128.462 20.1287 128.968 20.18 129.467 20.18C130.171 20.18 130.691 20.0627 131.029 19.828C131.381 19.5787 131.557 19.256 131.557 18.86C131.557 18.5227 131.439 18.266 131.205 18.09C130.985 17.8993 130.647 17.76 130.193 17.672L127.993 17.254C127.083 17.078 126.387 16.748 125.903 16.264C125.433 15.7653 125.199 15.1273 125.199 14.35C125.199 13.646 125.389 13.0373 125.771 12.524C126.167 12.0107 126.709 11.6147 127.399 11.336C128.088 11.0573 128.88 10.918 129.775 10.918C130.42 10.918 131.021 10.9913 131.579 11.138C132.151 11.27 132.701 11.4827 133.229 11.776C133.449 11.8933 133.595 12.0473 133.669 12.238C133.757 12.4287 133.779 12.6267 133.735 12.832C133.691 13.0227 133.603 13.1987 133.471 13.36C133.339 13.5067 133.17 13.602 132.965 13.646C132.774 13.6753 132.554 13.6313 132.305 13.514C131.85 13.2793 131.41 13.1107 130.985 13.008C130.574 12.9053 130.178 12.854 129.797 12.854C129.078 12.854 128.543 12.9787 128.191 13.228C127.853 13.4773 127.685 13.8073 127.685 14.218C127.685 14.526 127.787 14.7827 127.993 14.988C128.198 15.1933 128.513 15.3327 128.939 15.406L131.139 15.824C132.092 16 132.811 16.3227 133.295 16.792C133.793 17.2613 134.043 17.892 134.043 18.684C134.043 19.7547 133.625 20.598 132.789 21.214C131.953 21.8153 130.838 22.116 129.445 22.116Z" fill="#0E0A2F"/>
<defs>
<clipPath id="clip0_5001_120">
<rect width="27.792" height="27.792" rx="6" fill="white"/>
</clipPath>
</defs>
</svg>
