<svg width="28" height="28" viewBox="0 0 28 28" fill="none" xmlns="http://www.w3.org/2000/svg">
<g clip-path="url(#clip0_5002_190)">
<rect width="27.792" height="27.792" rx="6" fill="#0B68F7"/>
<path d="M13.6748 6.34888L13.6758 6.34985L13.6777 6.34888L13.6768 6.34985C13.885 6.35307 14.0869 6.42208 14.252 6.54907L14.3672 6.65356C14.4733 6.76656 14.5515 6.90421 14.5938 7.05493L17.4717 17.2903L18.8877 13.5168L18.9492 13.3831C19.0208 13.2554 19.1209 13.1449 19.2422 13.0608L19.3691 12.9866C19.5005 12.9224 19.6455 12.889 19.793 12.8889H42.1826C42.4391 12.889 42.6848 12.9908 42.8662 13.1721L42.9307 13.2434C43.0717 13.4156 43.1504 13.6322 43.1504 13.8567C43.1503 14.081 43.0716 14.297 42.9307 14.469L42.8662 14.5403C42.6848 14.7216 42.4391 14.8234 42.1826 14.8235H20.4639L18.2461 20.7366C18.1924 20.8797 18.1058 21.0072 17.9941 21.1096L17.875 21.2034C17.7474 21.2879 17.6018 21.3403 17.4512 21.3577L17.2998 21.3635C17.147 21.3571 16.9983 21.3147 16.8662 21.2405L16.7402 21.1555C16.6202 21.0606 16.5253 20.9388 16.4619 20.801L16.4092 20.6584L13.6123 10.7151L12.541 14.1448C12.4949 14.2925 12.4142 14.4262 12.3066 14.5354L12.1904 14.636C12.0661 14.7274 11.9224 14.7874 11.7715 14.8118L11.6182 14.8235H-9.18262C-9.40715 14.8234 -9.62375 14.7458 -9.7959 14.6047L-9.86621 14.5403C-10.0476 14.3589 -10.1503 14.1132 -10.1504 13.8567C-10.1504 13.6001 -10.0477 13.3536 -9.86621 13.1721L-9.7959 13.1077C-9.62376 12.9666 -9.40712 12.889 -9.18262 12.8889H10.9072L12.7383 7.02759L12.7959 6.88306C12.8653 6.74426 12.9677 6.6233 13.0947 6.53149L13.2275 6.45142C13.3648 6.38254 13.5169 6.34818 13.6719 6.34985L13.6729 6.34888H13.6748Z" fill="white" stroke="white" stroke-width="0.3"/>
</g>
<defs>
<clipPath id="clip0_5002_190">
<rect width="27.792" height="27.792" rx="6" fill="white"/>
</clipPath>
</defs>
</svg>
